PathFileType	4	(X/Y/Z)	C:/Users/beibeiliu/ov580/test_trc/User2\sequence.14_training_dense_right.trc
DataRate	CameraRate	NumFrames	NumMarkers	Units	OrigDataRate	OrigDataStartFrame	OrigNumFrames
120	120	25	19	mm	120	1	420
Frame#	Time	ThumbCMC			ThumbMCP			ThumbIP			ThumbTip			IndexMCP			IndexPIP			IndexTip			MiddleMCP			MiddlePIP			MiddleTip			RingMCP			RingPIP			RingTip			PinkyMCP			PinkyPIP			PinkyTip			BackHand1			BackHand2			BackHand3	
		X0	Y0	Z0	X1	Y1	Z1	X2	Y2	Z2	X3	Y3	Z3	X4	Y4	Z4	X5	Y5	Z5	X6	Y6	Z6	X7	Y7	Z7	X8	Y8	Z8	X9	Y9	Z9	X10	Y10	Z10	X11	Y11	Z11	X12	Y12	Z12	X13	Y13	Z13	X14	Y14	Z14	X15	Y15	Z15	X16	Y16	Z16	X17	Y17	Z17	X18	Y18	Z18	
0	0	51.6437	9.50604	91.0409	21.3267	-0.324429	76.0045	-1.41957	-11.1039	51.7362	-15.4557	-21.2139	34.5701	51.0292	23.145	7.62973	41.2142	21.3964	-22.0133	32.0165	21.2271	-44.1751	82.4357	20.0513	-5.74017	76.8587	14.2886	-36.7466	78.5631	5.41121	-68.3732	104.463	9.38345	-3.92689	105.897	3.95551	-30.7335	108.598	-0.433332	-59.2832	126.975	-2.73026	10.8305	136.457	-9.49991	-12.2369	145.882	-11.4073	-31.7785	109.334	22.673	51.8629	114.808	31.3134	85.2148	78.2052	32.5757	73.9346	
1	0.00833333	47.8353	9.31752	86.7272	24.8377	-2.12784	76.0972	-0.0700593	-13.2291	49.5585	-16.9715	-24.5227	36.7139	50.4231	23.232	7.71062	38.8176	23.9233	-20.6767	34.4832	22.0364	-48.2333	78.4261	20.5544	-4.47884	75.4278	12.9184	-40.7812	77.2427	3.01058	-70.2578	101.193	10.3939	-6.23497	108.828	3.16733	-28.2445	104.8	-2.91621	-59.5595	125.378	-2.94312	11.2337	135.994	-9.74491	-13.7743	141.417	-12.3383	-37.007	108.481	22.1275	52.2039	114.516	29.6179	85.0753	76.7248	33.4941	71.2428	
2	0.0166667	47.8115	9.28492	92.3712	24.8827	-3.65969	73.3983	-0.24418	-15.2621	50.0889	-11.5767	-26.5053	32.3039	51.237	24.7187	7.72211	39.6966	25.164	-16.4417	36.8463	23.8215	-44.7162	78.6155	20.4757	-9.1636	75.6633	11.9617	-39.9896	77.4415	-2.14401	-70.4629	103.82	10.2397	-4.53144	103.938	3.10557	-28.1826	103.253	-7.48014	-57.8524	125.737	-1.48778	9.97975	134.714	-10.6746	-11.1356	140.386	-12.5197	-32.9437	109.494	22.6252	51.6492	117.462	29.8267	82.6377	79.4209	34.2015	73.2068	
3	0.025	46.3502	9.63426	89.291	23.8314	-4.69598	75.1073	2.57995	-17.5782	46.3097	-9.11787	-30.517	27.7556	50.6654	28.0571	10.5608	40.6485	28.5811	-20.614	39.639	26.8448	-46.6414	83.6053	21.3368	-6.93794	79.9889	9.05096	-40.8943	79.2216	-9.62617	-66.2081	102.091	12.5015	-6.10399	103.774	1.7723	-32.6133	98.2753	-12.8143	-57.1575	125.338	-0.774822	11.2582	132.374	-9.7714	-9.56614	141.371	-13.2055	-36.4591	107.52	25.8429	52.5636	116.815	28.3656	86.4524	75.7319	34.8671	71.1871	
4	0.0333333	45.4956	10.1475	87.6512	26.386	-7.08383	71.9336	6.49103	-21.5397	44.5775	-1.14289	-35.4891	22.669	53.1522	31.7911	7.45083	43.1037	33.3309	-17.0339	42.2816	30.0342	-45.6324	79.9122	23.9194	-3.07003	77.3223	6.21907	-39.509	73.9855	-16.6066	-60.2505	101.408	13.1494	-0.694008	98.6595	0.042356	-32.58	92.7932	-20.8514	-55.0205	126.154	-0.739763	14.2198	132.785	-8.57546	-14.5286	138.827	-14.6024	-37.5485	109.296	25.6369	56.4017	120.533	29.9338	86.6442	82.4661	35.1792	74.9045	
5	0.0416667	46.5234	8.69719	85.9179	30.5202	-10.1142	68.9664	13.8012	-26.1559	45.1571	6.59463	-39.7411	22.3869	51.5846	33.8588	10.277	48.4904	35.3552	-19.5278	38.2645	35.3961	-47.1785	82.1299	23.4668	-3.0241	78.5873	4.14994	-35.7101	69.5064	-26.2048	-49.3664	99.4851	13.7228	-3.87598	99.7752	-1.84354	-29.688	85.7736	-26.9451	-43.6713	127.355	0.0163237	11.0605	129.371	-6.84004	-11.6322	137.76	-14.3618	-39.4226	113.264	24.7105	53.7454	117.586	29.3188	85.174	81.94	36.0766	71.9223	
6	0.05	48.97	8.14795	85.2912	28.4591	-11.261	67.8505	12.4507	-28.5084	39.0664	8.9106	-43.3554	17.9367	54.3002	36.0018	9.7571	45.5811	39.425	-19.3846	46.2619	36.6174	-47.2085	79.1209	23.952	-4.35088	74.0172	-0.264799	-33.0963	65.1214	-36.8089	-35.5257	103.378	12.6038	-4.20546	98.5278	-6.73825	-28.1546	84.079	-36.0678	-33.3584	124.008	0.975089	13.647	131.441	-10.066	-13.8478	133.456	-18.3149	-40.3341	110.741	27.1081	57.4904	115.615	29.6459	88.3974	80.0334	36.9068	73.2028	
7	0.0583333	47.9987	7.69734	88.8318	30.0851	-12.5464	65.1199	17.6552	-29.893	36.3788	17.2583	-43.5995	11.0519	53.3421	38.524	9.89406	49.5822	39.4688	-21.7355	45.2021	38.477	-49.8406	80.7325	20.991	-5.92577	72.6493	-6.57124	-29.7911	64.4248	-45.427	-18.2222	103.427	10.6124	-4.59222	97.0848	-12.1807	-25.8794	78.3945	-39.2072	-20.9432	123.981	1.51324	14.9822	126.985	-8.4987	-11.4929	129.617	-20.5964	-38.4215	109.867	28.648	53.7438	116.505	30.1791	90.7047	78.392	38.4859	76.8148	
8	0.0666667	50.3989	7.05708	83.1945	31.2851	-14.0099	63.3103	24.2123	-30.327	34.3414	27.1038	-44.0152	8.36048	55.0306	38.5792	8.71856	48.7143	42.1094	-19.4867	47.2263	39.505	-45.1392	80.8995	20.8662	-4.61377	71.6196	-12.1952	-25.5805	63.4621	-40.6306	-9.05778	100.159	13.0141	-0.83033	93.3516	-10.9654	-22.306	77.2187	-42.9559	-7.52186	124.128	2.31506	12.6261	122.303	-9.32364	-15.0284	123.275	-24.9368	-35.5434	114.026	28.1387	55.1383	118.721	29.1062	87.6531	81.4393	36.7882	77.5288	
9	0.075	47.7344	6.99933	88.3319	31.8576	-15.6422	61.2375	27.1972	-31.2881	31.1081	37.7247	-41.9632	3.68709	56.1574	39.3077	9.52402	46.3927	42.2609	-15.0312	44.6824	39.9238	-47.0514	75.5075	20.7711	-6.30366	68.9554	-13.7956	-21.704	61.1014	-40.0975	1.07209	98.968	12.1778	-0.832888	89.4721	-12.4936	-19.785	75.1693	-40.4875	-0.00794081	123.781	2.14484	11.8283	118.914	-10.1904	-15.2391	110.381	-26.35	-35.6722	108.088	27.0338	58.7642	117.319	28.5133	87.1245	82.6769	38.1585	78.7514	
10	0.0833333	49.7182	6.53846	85.7525	30.5569	-16.728	58.9489	28.7246	-35.0142	28.1713	46.2564	-42.9448	4.025	52.693	38.6233	14.476	43.9453	42.0836	-17.9752	45.6803	39.6613	-43.6895	75.5118	18.1674	-4.36463	69.6797	-13.6401	-19.7361	62.5407	-38.9889	10.2033	97.1944	8.92163	-3.82756	87.4885	-16.5164	-17.8531	74.3777	-41.4229	5.66483	120.627	0.364659	11.2091	112.429	-12.7398	-14.5614	100.249	-34.2543	-33.7774	107.779	27.0917	60.6583	116.164	29.8936	91.6114	80.351	35.5223	79.7698	
11	0.0916667	48.1088	5.31417	91.3268	34.5074	-16.144	63.4985	31.778	-35.2445	27.4002	48.3344	-44.2456	4.37737	49.6178	37.8762	12.8982	44.9116	40.3089	-16.6874	40.9431	37.9593	-45.1343	71.8513	18.0395	-0.199882	65.2039	-17.4283	-16.1579	57.5925	-39.2397	15.5484	94.8997	7.34892	-2.29118	86.1333	-19.8005	-15.1989	71.4431	-42.3985	11.9531	112.82	-0.114145	9.17912	108.072	-17.7874	-15.7985	97.1556	-38.9707	-29.3849	108.583	26.2878	55.5366	114.923	28.5746	90.2901	75.5886	36.4179	76.9291	
12	0.1	45.3221	4.93954	92.6468	32.7155	-17.7974	65.774	30.3921	-36.8371	35.9473	45.6487	-46.0222	11.6056	48.2095	37.3182	12.7153	44.2856	37.3248	-14.7739	37.4769	35.6248	-38.6777	69.5566	13.7528	-2.9196	65.1515	-22.7033	-11.121	59.6718	-40.4794	20.731	92.2724	4.09206	-1.16512	84.5018	-26.2535	-11.6302	68.7099	-44.391	14.9067	115.027	-3.01974	11.0579	107.292	-17.9758	-12.2318	96.5672	-36.8951	-29.4974	106.982	26.8456	58.5622	114.156	26.6557	90.8311	76.8317	37.1636	81.9213	
13	0.108333	48.6502	3.95091	91.794	31.1532	-19.7141	67.8972	30.6056	-36.5953	37.4647	44.4032	-47.7416	15.6965	51.3716	33.1246	16.9228	44.7635	35.5321	-12.4613	37.3734	33.7779	-42.2116	75.0782	12.1492	2.59579	65.3759	-21.8194	-10.5624	59.5801	-42.1996	26.7193	94.4674	0.621467	-0.00122044	80.4097	-23.6187	-9.3357	71.2427	-46.2768	14.4729	117.962	-4.18923	17.0363	112.311	-17.9132	-11.4222	104.602	-28.1279	-29.5731	106.495	24.1782	63.6633	113.925	26.0419	91.6426	75.7964	36.0099	84.0511	
14	0.116667	46.216	2.7335	93.5483	26.9517	-21.1071	70.9378	28.3637	-37.6128	38.8046	47.7415	-45.9023	13.2938	48.2899	34.7639	15.772	43.6999	34.6948	-12.8759	36.0873	34.0921	-37.4284	70.1768	10.991	3.43205	65.7266	-22.1835	-8.89569	58.0815	-42.013	27.4923	95.5506	-0.060746	3.14983	81.7321	-29.0747	-7.69987	68.9127	-47.4822	20.5629	117.528	-3.36051	19.6227	120.468	-11.6116	-6.09007	115.865	-18.0466	-33.6936	109.138	21.6221	63.3809	112.388	25.5217	95.7306	75.6117	32.723	81.907	
15	0.125	44.1916	3.37394	95.0083	28.7499	-20.0787	71.5129	26.7504	-37.4241	39.9024	45.2304	-45.7116	17.4766	47.2908	35.0063	18.879	39.8333	36.011	-9.94869	33.9725	36.7281	-34.8546	70.1732	10.1002	3.36582	59.4341	-23.5932	-4.93652	55.5316	-41.4773	27.5524	90.2539	1.79873	4.27876	85.4381	-26.4499	-7.92459	70.5661	-48.3431	20.7903	118.914	-1.35926	21.1837	121.838	-7.04019	-3.64684	122.299	-6.96512	-29.2306	110.681	22.1788	66.0573	116.036	24.6468	94.8188	76.7935	32.0453	87.3484	
16	0.133333	47.8312	3.43691	97.5127	27.3179	-18.9242	71.7628	30.2639	-34.5363	38.189	47.3477	-43.6026	17.1015	46.9729	36.7506	20.3073	38.1289	38.626	-5.48046	36.2016	39.0053	-34.837	69.6495	14.6002	7.9771	59.3798	-19.1924	-4.25545	59.7855	-39.786	29.5817	91.4165	4.58586	10.1224	80.3851	-25.6945	-4.3861	67.2719	-45.5115	23.8241	119.592	0.0212997	25.7593	120.967	-3.42094	-4.11209	124.916	-0.446781	-27.4108	108.896	23.3567	68.9827	116.652	24.5485	100.421	78.2991	32.1661	90.3138	
17	0.141667	44.8552	6.15139	98.2211	30.682	-16.3144	70.9907	26.4203	-33.9101	41.5869	44.2087	-41.657	19.2984	49.4745	39.306	21.7762	41.2148	41.7838	-3.91327	35.7832	42.4403	-29.4397	71.0109	14.2466	7.33888	59.4447	-19.7118	-1.03431	53.459	-36.2805	32.8334	88.9538	5.82228	8.56192	79.5465	-25.9568	-1.86367	65.0207	-40.9689	24.1509	117.072	2.82984	22.9503	121.505	-1.01543	-2.72929	129.563	2.58727	-21.7607	110.343	23.9773	69.9111	117.111	24.4524	103.81	76.1774	34.4649	92.7104	
18	0.15	43.6969	9.25794	104.309	28.2094	-12.2519	72.8912	23.7017	-30.4507	43.5534	42.5819	-38.5268	17.9481	47.2716	43.3512	27.3304	41.013	46.0289	1.39689	36.5886	48.5113	-29.2978	67.053	18.8693	8.42002	58.5763	-12.7738	-1.3866	55.0007	-33.6038	35.685	92.952	7.05596	11.9092	77.0634	-18.5599	-2.89357	62.4391	-37.9484	26.8647	116.309	2.74718	27.1266	118.749	0.590057	-2.42836	125.157	1.68953	-20.3264	106.641	25.6966	69.9766	114.139	23.1455	102.797	80.6397	36.7504	92.8822	
19	0.158333	45.1632	13.9542	102.664	29.6598	-6.43642	74.4813	24.0891	-23.752	46.9066	39.4202	-34.2506	20.9161	49.7677	46.7167	30.9443	40.4471	52.3343	3.03051	32.472	55.2503	-22.2121	70.1183	19.8983	9.31236	53.3234	-10.5055	1.3706	47.9038	-28.8619	37.647	87.2963	7.37627	8.52778	68.4584	-16.1998	-0.504959	57.1626	-34.1761	31.3488	112.037	1.96252	26.894	114.814	-1.27332	-0.228041	117.133	4.56243	-25.3332	107.275	26	67.852	118.145	23.4289	99.1194	84.653	38.0466	95.1142	
20	0.166667	50.4418	19.1936	101.354	27.5985	0.882535	80.4141	15.4541	-17.4897	48.0685	35.7747	-28.1844	26.7218	56.5825	49.5069	27.1988	42.9467	56.9297	3.23799	35.245	58.9818	-23.0782	68.1605	24.9389	13.1565	48.8077	-4.9837	0.478468	38.6951	-22.0614	40.1899	83.5839	6.91029	9.19437	61.4485	-16.5308	2.34694	52.4998	-32.5818	30.8766	112.684	-4.23595	23.2245	111.052	-8.55149	-0.123282	113.69	-6.75014	-25.5147	115.211	19.9609	69.5281	123.96	19.4722	99.6412	84.6397	41.506	90.0569	
21	0.175	52.8305	29.186	101.361	28.9104	10.7601	78.4464	11.8602	-6.29274	50.1793	25.1868	-23.2052	30.3939	60.9467	53.5179	22.5235	51.2288	59.6014	2.44425	41.3092	61.7782	-29.1978	68.4915	22.1677	9.84181	39.2922	-1.49109	4.84949	32.6975	-15.6539	41.678	81.3623	0.462508	8.02444	57.7024	-16.5094	3.68089	43.1723	-27.7706	35.8653	106.555	-11.2604	20.6273	101.204	-15.8313	-2.53719	101.435	-17.1297	-26.7401	112.944	17.7223	68.8448	124.198	13.9034	97.561	96.3582	39.6359	89.3013	
22	0.183333	60.705	38.4864	99.2398	31.0639	25.3501	82.5723	10.8744	9.23143	51.9294	19.0327	-12.7035	34.1003	70.3358	54.2208	18.5994	59.994	57.8202	-6.39706	52.2094	58.3298	-32.2156	71.3855	17.4422	11.1821	37.9112	0.498955	5.6043	26.4386	-4.62864	46.2158	78.3741	-4.73237	12.0478	46.8616	-15.18	6.77615	33.5639	-19.7138	41.8268	96.2732	-18.0775	22.1552	91.6983	-28.7851	0.11401	86.9786	-28.2283	-26.0952	112.806	9.71746	61.5185	123.946	7.22508	97.3225	101.993	37.617	81.9356	
23	0.191667	69.4117	48.3871	97.893	35.3628	40.2657	80.5502	12.6638	26.3372	58.7828	8.95984	0.907397	38.5821	80.6598	46.1792	16.5604	70.1263	55.0268	-11.5921	61.3747	51.3507	-36.3306	69.1018	17.2891	10.287	31.8104	6.9738	7.92196	20.1763	8.27011	45.5294	67.2296	-8.31762	13.5475	33.3599	-13.5082	14.128	25.6256	-2.0296	49.6707	84.6285	-27.8995	25.9263	76.312	-33.5791	6.35971	67.1978	-42.3604	-19.8408	108.115	-2.52694	60.5572	123.759	-2.4927	94.622	110.369	32.4236	81.0131	
24	0.2	81.9653	50.5599	89.3305	46.538	52.2183	75.8197	15.6365	45.685	57.2725	9.46261	14.268	41.2683	85.883	39.9645	8.14984	77.8564	43.6443	-16.8743	66.7314	43.895	-42.9054	66.2927	8.6208	10.6575	28.9193	14.5346	8.66386	21.4813	24.0106	49.4835	56.7644	-8.0299	13.9981	25.8874	-4.38686	18.6305	21.5623	9.36122	49.8817	69.7235	-31.8496	33.2684	56.1851	-39.3691	7.90684	45.9758	-47.3453	-8.60047	104.179	-9.74285	61.1263	118.94	-11.1593	95.8642	114.512	26.6546	76.9522	
